<svg width="60" height="60" viewBox="0 0 60 60" fill="none" xmlns="http://www.w3.org/2000/svg">
<path d="M0 30C0 13.4315 13.4315 0 30 0C46.5685 0 60 13.4315 60 30C60 46.5685 46.5685 60 30 60C13.4315 60 0 46.5685 0 30Z" fill="#0A0D12"/>
<path d="M30 11.25C25.0875 11.25 21.0938 15.2437 21.0938 20.1562C21.0938 24.975 24.8625 28.875 29.775 29.0437C29.925 29.025 30.075 29.025 30.1875 29.0437C30.225 29.0437 30.2437 29.0437 30.2812 29.0437C30.3 29.0437 30.3 29.0437 30.3188 29.0437C35.1187 28.875 38.8875 24.975 38.9062 20.1562C38.9062 15.2437 34.9125 11.25 30 11.25Z" fill="#FDFDFD"/>
<path d="M39.5248 34.0307C34.2936 30.5432 25.7623 30.5432 20.4936 34.0307C18.1123 35.6244 16.7998 37.7807 16.7998 40.0869C16.7998 42.3932 18.1123 44.5307 20.4748 46.1057C23.0998 47.8682 26.5498 48.7494 29.9998 48.7494C33.4498 48.7494 36.8998 47.8682 39.5248 46.1057C41.8873 44.5119 43.1998 42.3744 43.1998 40.0494C43.1811 37.7432 41.8873 35.6057 39.5248 34.0307Z" fill="#FDFDFD"/>
</svg>
