<svg width="20" height="20" viewBox="0 0 20 20" fill="none" xmlns="http://www.w3.org/2000/svg">
<path d="M10.0003 14.3952L6.54194 16.4785C6.38916 16.5757 6.22944 16.6174 6.06277 16.6035C5.89611 16.5896 5.75027 16.5341 5.62527 16.4368C5.50027 16.3396 5.40305 16.2182 5.33361 16.0727C5.26416 15.9271 5.25027 15.7638 5.29194 15.5827L6.20861 11.6452L3.14611 8.99935C3.00722 8.87435 2.92055 8.73185 2.88611 8.57185C2.85166 8.41185 2.86194 8.25574 2.91694 8.10352C2.97194 7.95129 3.05527 7.82629 3.16694 7.72852C3.27861 7.63074 3.43139 7.56824 3.62527 7.54102L7.66694 7.18685L9.22944 3.47852C9.29888 3.31185 9.40666 3.18685 9.55277 3.10352C9.69889 3.02018 9.84805 2.97852 10.0003 2.97852C10.1525 2.97852 10.3017 3.02018 10.4478 3.10352C10.5939 3.18685 10.7017 3.31185 10.7711 3.47852L12.3336 7.18685L16.3753 7.54102C16.5697 7.56879 16.7225 7.63129 16.8336 7.72852C16.9447 7.82574 17.0281 7.95074 17.0836 8.10352C17.1392 8.25629 17.1497 8.41268 17.1153 8.57268C17.0808 8.73268 16.9939 8.8749 16.8544 8.99935L13.7919 11.6452L14.7086 15.5827C14.7503 15.7632 14.7364 15.9266 14.6669 16.0727C14.5975 16.2188 14.5003 16.3402 14.3753 16.4368C14.2503 16.5335 14.1044 16.5891 13.9378 16.6035C13.7711 16.618 13.6114 16.5763 13.4586 16.4785L10.0003 14.3952Z" fill="#F3993F"/>
</svg>
