<svg width="76" height="32" viewBox="0 0 76 32" fill="none" xmlns="http://www.w3.org/2000/svg">
<path d="M0 23.5969L7.80143 13.3744H0.924182C0.8659 13.0799 0.840923 12.7574 0.840923 12.3998C0.840923 12.0563 0.8659 11.7408 0.924182 11.4533H12.056L12.1975 11.7688L4.33783 22.0124H11.7063C11.7646 22.3349 11.7896 22.6714 11.7896 23.008C11.7896 23.3305 11.7646 23.639 11.7063 23.9335H0.141541L0 23.5969Z" fill="#FF4A00"/>
<path d="M22.5135 15.7093C22.5135 14.7488 22.2221 14.0897 21.6476 13.7111C21.0731 13.3395 20.2322 13.1502 19.1331 13.1502C18.4587 13.1502 17.8259 13.1922 17.2431 13.2834C16.652 13.3745 16.0858 13.4867 15.5197 13.6339C15.1533 13.1011 14.9701 12.456 14.9701 11.7128C15.6279 11.5376 16.3439 11.3973 17.1349 11.2992C17.9259 11.201 18.6835 11.1519 19.4162 11.1519C21.3395 11.1519 22.8049 11.5235 23.8123 12.2597C24.8114 12.9959 25.3193 14.1808 25.3193 15.8005V23.6111C24.6449 23.7373 23.829 23.8775 22.8632 24.0107C21.8973 24.151 20.9149 24.2141 19.9158 24.2141C18.9749 24.2141 18.1174 24.1439 17.3597 23.9967C16.602 23.8495 15.9526 23.6181 15.4197 23.2886C14.8869 22.966 14.4789 22.5524 14.1875 22.0476C13.8961 21.5427 13.7546 20.9328 13.7546 20.2246C13.7546 19.5305 13.9211 18.9135 14.2624 18.3876C14.5955 17.8618 15.0534 17.4201 15.6362 17.0765C16.2107 16.7259 16.8768 16.4665 17.6345 16.2983C18.3838 16.13 19.1748 16.0388 20.0074 16.0388C20.6235 16.0388 21.1314 16.0529 21.5227 16.0739C21.914 16.0949 22.247 16.13 22.5218 16.158V15.7093H22.5135ZM22.5135 18.0721C22.2221 18.0371 21.8557 18.009 21.4144 17.974C20.9732 17.9389 20.5985 17.9249 20.2904 17.9249C19.0915 17.9249 18.184 18.1142 17.5595 18.4858C16.9351 18.8574 16.6187 19.4253 16.6187 20.1896C16.6187 20.6733 16.7269 21.059 16.9351 21.3324C17.1432 21.6058 17.4097 21.8162 17.726 21.9634C18.0424 22.1107 18.3921 22.2018 18.7834 22.2299C19.1664 22.2649 19.5328 22.2789 19.8825 22.2789C20.3237 22.2789 20.7817 22.2579 21.2562 22.2158C21.7308 22.1738 22.1471 22.1177 22.5135 22.0335V18.0721Z" fill="#FF4A00"/>
<path d="M28.4415 11.4538C28.633 11.4188 28.8328 11.3977 29.0326 11.3837C29.2325 11.3697 29.4406 11.3627 29.6571 11.3627C29.8486 11.3627 30.0484 11.3697 30.2649 11.3837C30.473 11.3977 30.6812 11.4258 30.8727 11.4538C30.8893 11.4889 30.9143 11.587 30.9476 11.7553C30.9726 11.9236 31.0059 12.1059 31.0309 12.3022C31.0558 12.4985 31.0892 12.6808 31.1141 12.8631C31.1391 13.0454 31.1558 13.1576 31.1558 13.2067C31.3473 12.9472 31.5804 12.6948 31.8468 12.4494C32.1132 12.204 32.438 11.9867 32.8126 11.7904C33.1873 11.594 33.6119 11.4398 34.0865 11.3276C34.5611 11.2154 35.0856 11.1593 35.6601 11.1593C36.526 11.1593 37.3336 11.2785 38.0746 11.5239C38.8156 11.7693 39.4484 12.1409 39.9813 12.6528C40.5141 13.1646 40.9221 13.8166 41.2218 14.6019C41.5216 15.3872 41.6714 16.3197 41.6714 17.3924C41.6714 19.5379 40.9804 21.2136 39.6066 22.4196C38.2245 23.6255 36.2762 24.2355 33.7535 24.2355C33.3288 24.2355 32.8959 24.2145 32.4546 24.1654C32.0133 24.1163 31.622 24.0532 31.2973 23.9691V29.6903C31.0642 29.7254 30.8227 29.7464 30.5563 29.7604C30.2982 29.7744 30.0567 29.7815 29.8486 29.7815C29.6404 29.7815 29.399 29.7744 29.1409 29.7604C28.8828 29.7464 28.6413 29.7184 28.4332 29.6903V11.4538H28.4415ZM31.3056 21.8937C31.672 22.0059 32.0466 22.09 32.4296 22.1391C32.8126 22.1882 33.3122 22.2092 33.9366 22.2092C34.6277 22.2092 35.2688 22.1181 35.8433 21.9288C36.4178 21.7395 36.9173 21.452 37.3336 21.0664C37.7499 20.6737 38.0746 20.1829 38.3161 19.594C38.5575 19.005 38.6741 18.2969 38.6741 17.4906C38.6741 16.1935 38.391 15.1628 37.8249 14.3986C37.2587 13.6343 36.3262 13.2557 35.0357 13.2557C34.5527 13.2557 34.0948 13.3258 33.6452 13.4731C33.2039 13.6203 32.8043 13.8377 32.4629 14.1321C32.1132 14.4266 31.8385 14.7912 31.622 15.2399C31.4055 15.6887 31.3056 16.2145 31.3056 16.8315V21.8937Z" fill="#FF4A00"/>
<path d="M45.2349 13.3463H43.3533C43.3117 13.2131 43.2867 13.0659 43.27 12.8976C43.2534 12.7294 43.245 12.5611 43.245 12.3998C43.245 12.2386 43.2534 12.0703 43.27 11.902C43.2867 11.7337 43.32 11.5795 43.3533 11.4533H48.0408V23.9405C47.8326 23.9755 47.5912 23.9966 47.3331 24.0106C47.075 24.0246 46.8335 24.0316 46.6254 24.0316C46.4339 24.0316 46.2091 24.0246 45.9427 24.0106C45.6845 23.9966 45.4431 23.9685 45.2349 23.9405V13.3463Z" fill="#FF4A00"/>
<path d="M54.1937 18.2897C54.2353 19.6499 54.6516 20.6525 55.4509 21.2835C56.2502 21.9145 57.4325 22.23 58.9894 22.23C60.3549 22.23 61.6621 22.0267 62.8943 21.62C63.0525 21.8654 63.1774 22.1599 63.269 22.5105C63.3689 22.861 63.4188 23.2046 63.4438 23.5482C62.8111 23.7725 62.1117 23.9478 61.3457 24.06C60.588 24.1722 59.7388 24.2283 58.8146 24.2283C57.4658 24.2283 56.3085 24.067 55.3427 23.7515C54.3769 23.436 53.5859 22.9873 52.9614 22.4123C52.337 21.8374 51.8791 21.1573 51.5877 20.365C51.2962 19.5797 51.1547 18.7173 51.1547 17.7708C51.1547 16.8453 51.2962 15.9829 51.571 15.1766C51.8458 14.3703 52.2787 13.6762 52.8532 13.0802C53.4277 12.4913 54.1604 12.0145 55.0346 11.6709C55.9088 11.3204 56.9496 11.1451 58.1402 11.1451C59.1643 11.1451 60.0552 11.2923 60.8295 11.5868C61.6038 11.8813 62.2449 12.2809 62.7694 12.7928C63.2856 13.3046 63.6853 13.9146 63.9517 14.6157C64.2181 15.3239 64.3597 16.0881 64.3597 16.9154C64.3597 17.1398 64.3514 17.3852 64.3264 17.6306C64.3097 17.883 64.2847 18.1003 64.2681 18.2756H54.1937V18.2897ZM61.5372 16.4877C61.5372 16.032 61.4622 15.5973 61.3207 15.1836C61.1792 14.77 60.9627 14.4124 60.6879 14.1039C60.4049 13.7954 60.0552 13.55 59.6222 13.3607C59.1893 13.1714 58.673 13.0802 58.0736 13.0802C56.8996 13.0802 56.0004 13.3817 55.3676 13.9777C54.7432 14.5807 54.3602 15.415 54.227 16.4877H61.5372Z" fill="#FF4A00"/>
<path d="M67.5236 11.4533C67.7318 11.4182 67.9399 11.3972 68.1314 11.3832C68.3229 11.3692 68.5227 11.3621 68.7392 11.3621C68.9473 11.3621 69.1638 11.3692 69.372 11.3832C69.5801 11.3972 69.7799 11.4252 69.9465 11.4533C70.0047 11.6987 70.063 12.0142 70.1213 12.4138C70.1796 12.8135 70.2046 13.15 70.2046 13.4235C70.6125 12.8696 71.1454 12.3928 71.8115 11.9861C72.4776 11.5795 73.3268 11.3762 74.3675 11.3762C74.5257 11.3762 74.6839 11.3832 74.8421 11.3902C75.0086 11.3972 75.1419 11.4112 75.2584 11.4252C75.3001 11.5725 75.325 11.7267 75.3417 11.888C75.3583 12.0493 75.3667 12.2175 75.3667 12.3998C75.3667 12.5961 75.35 12.7995 75.325 13.0098C75.3001 13.2201 75.2584 13.4235 75.2251 13.6198C75.0669 13.5847 74.9087 13.5707 74.7505 13.5707C74.584 13.5707 74.4591 13.5707 74.3592 13.5707C73.843 13.5707 73.3435 13.6338 72.8689 13.753C72.3943 13.8722 71.9697 14.0896 71.595 14.3981C71.2203 14.7066 70.9206 15.1272 70.6958 15.6671C70.471 16.2 70.3628 16.8941 70.3628 17.7354V23.9405C70.1546 23.9755 69.9132 23.9966 69.655 24.0106C69.3969 24.0246 69.1555 24.0316 68.9473 24.0316C68.7392 24.0316 68.4977 24.0246 68.2396 24.0106C67.9815 23.9966 67.7318 23.9685 67.4986 23.9405V11.4533H67.5236Z" fill="#FF4A00"/>
<path d="M50.7633 4.10568H47.9657L49.9473 2.43698C49.7891 2.25468 49.6143 2.0794 49.4311 1.91814C49.2396 1.75688 49.0398 1.60964 48.815 1.48344L46.8334 3.15214V0.796325C46.5753 0.761268 46.3089 0.740234 46.0341 0.740234H46.0258C45.751 0.740234 45.4846 0.761268 45.2265 0.796325V3.15214L43.2449 1.48344C43.0285 1.61665 42.8203 1.76389 42.6288 1.91814C42.4373 2.0794 42.2708 2.24767 42.1126 2.43698L44.1025 4.10568H41.305C41.305 4.10568 41.2384 4.54739 41.2384 4.77877C41.2384 5.01014 41.2633 5.2345 41.305 5.45185H44.1025L42.1209 7.12055C42.429 7.48514 42.812 7.80766 43.2533 8.07409L45.2348 6.4054V8.76121C45.4929 8.79626 45.7594 8.8173 46.0341 8.8173H46.0425C46.3172 8.8173 46.5836 8.79626 46.8417 8.76121V6.4054L48.8233 8.07409C49.0398 7.94088 49.2479 7.79364 49.4394 7.63939C49.6309 7.47813 49.8058 7.30986 49.9557 7.12055L47.9741 5.45185H50.7716C50.8132 5.2345 50.8382 5.01014 50.8382 4.77877V4.77175C50.8299 4.54739 50.8132 4.32303 50.7633 4.10568ZM47.2331 4.78578C47.2331 5.08726 47.1665 5.37473 47.0499 5.64116C46.7335 5.73932 46.3921 5.79541 46.0341 5.79541C45.6761 5.79541 45.3347 5.73932 45.0184 5.64116C44.9018 5.37473 44.8352 5.08726 44.8352 4.78578V4.77877C44.8352 4.47728 44.9018 4.18981 45.0184 3.92338C45.3347 3.82522 45.6761 3.76913 46.0341 3.76913C46.3921 3.76913 46.7335 3.82522 47.0499 3.92338C47.1665 4.18981 47.2331 4.47728 47.2331 4.78578Z" fill="#FF4A00"/>
</svg>
